<?xml version="1.0" encoding="utf-8"?>
<!-- Generator: Adobe Illustrator 24.0.1, SVG Export Plug-In . SVG Version: 6.00 Build 0)  -->
<svg version="1.1" id="Layer_1" xmlns="http://www.w3.org/2000/svg" xmlns:xlink="http://www.w3.org/1999/xlink" x="0px" y="0px"
	 width="64px" height="64px" viewBox="0 0 64 64" style="enable-background:new 0 0 64 64;" xml:space="preserve">
<style type="text/css">
	.st0{fill:#553ED6;}
	.st1{fill:#CF7DFF;}
	.st2{fill:#925EEB;}
</style>
<title>favorite-heart-button</title>
<desc>Created with Sketch.</desc>
<g>
	<path class="st0" d="M34.3,0.8h-4.5H16.1l9.1,9.1l9.1,9.1l4.5,4.5L34.3,28l-9.1,9.1l-9.1,9.1l-9.1,9.1v7.9h22.7v-17h4.5
		c12.5,0,22.7-10.2,22.7-22.7C56.9,11,46.8,0.8,34.3,0.8"/>
	<polyline class="st0" points="25.2,9.9 25.2,0.8 16.1,0.8 16.1,9.9 25.2,9.9 	"/>
	<polyline class="st0" points="34.3,19 34.3,9.9 25.2,9.9 25.2,19 34.3,19 	"/>
	<polyline class="st0" points="43.3,28 43.3,19 34.3,19 34.3,28 43.3,28 	"/>
	<polyline class="st0" points="25.2,28 25.2,37.1 34.3,37.1 34.3,28 25.2,28 	"/>
	<polyline class="st0" points="16.1,46.2 25.2,46.2 25.2,37.1 16.1,37.1 16.1,46.2 	"/>
	<polyline class="st0" points="16.1,46.2 7.1,46.2 7.1,55.2 16.1,55.2 16.1,46.2 	"/>
	<polygon class="st1" points="25.2,37.1 38.8,23.5 25.2,9.9 16.1,0.8 7.1,0.8 7.1,9.9 7.1,37.1 7.1,55.2 16.1,46.2 	"/>
	<polyline class="st2" points="25.2,0.8 16.1,0.8 16.1,9.9 25.2,9.9 25.2,0.8 	"/>
	<polyline class="st2" points="34.3,9.9 25.2,9.9 25.2,19 34.3,19 34.3,9.9 	"/>
	<polyline class="st2" points="43.3,19 34.3,19 34.3,28 43.3,28 43.3,19 	"/>
	<polyline class="st2" points="34.3,28 34.3,28 25.2,28 25.2,37.1 34.3,37.1 34.3,28 	"/>
	<polyline class="st2" points="25.2,37.1 25.2,37.1 16.1,37.1 16.1,46.2 25.2,46.2 25.2,37.1 	"/>
	<polyline class="st2" points="16.1,46.2 16.1,46.2 7.1,46.2 7.1,55.2 16.1,55.2 16.1,46.2 	"/>
</g>
</svg>
